<mxfile host="app.diagrams.net" agent="Mozilla/5.0 (Windows NT 10.0; Win64; x64) AppleWebKit/537.36 (KHTML, like Gecko) Chrome/136.0.0.0 Safari/537.36" version="27.0.6">
  <diagram name="PÃ¡gina-1" id="gNq9mFq6cRzg1u7yFeeX">
    <mxGraphModel grid="1" page="1" gridSize="10" guides="1" tooltips="1" connect="1" arrows="1" fold="1" pageScale="1" pageWidth="827" pageHeight="1169" math="0" shadow="0">
      <root>
        <mxCell id="0" />
        <mxCell id="1" parent="0" />
        <mxCell id="pN0HyvS77nTdUHDOhbPm-2" value="Aluno" style="swimlane;fontStyle=1;align=center;verticalAlign=top;childLayout=stackLayout;horizontal=1;startSize=26;horizontalStack=0;resizeParent=1;resizeParentMax=0;resizeLast=0;collapsible=1;marginBottom=0;whiteSpace=wrap;html=1;" vertex="1" parent="1">
          <mxGeometry x="229" y="485" width="370" height="200" as="geometry">
            <mxRectangle x="330" y="360" width="70" height="30" as="alternateBounds" />
          </mxGeometry>
        </mxCell>
        <mxCell id="pN0HyvS77nTdUHDOhbPm-3" value="- nomeCompleto: string&lt;div&gt;- numeroDeMatricula: string&lt;br&gt;&lt;div&gt;- cpf: string&lt;/div&gt;&lt;div&gt;- dataDeNascimento: date&lt;/div&gt;&lt;div&gt;# isMatriculado: boolean&lt;/div&gt;&lt;/div&gt;" style="text;strokeColor=none;fillColor=none;align=left;verticalAlign=top;spacingLeft=4;spacingRight=4;overflow=hidden;rotatable=0;points=[[0,0.5],[1,0.5]];portConstraint=eastwest;whiteSpace=wrap;html=1;" vertex="1" parent="pN0HyvS77nTdUHDOhbPm-2">
          <mxGeometry y="26" width="370" height="84" as="geometry" />
        </mxCell>
        <mxCell id="pN0HyvS77nTdUHDOhbPm-4" value="" style="line;strokeWidth=1;fillColor=none;align=left;verticalAlign=middle;spacingTop=-1;spacingLeft=3;spacingRight=3;rotatable=0;labelPosition=right;points=[];portConstraint=eastwest;strokeColor=inherit;" vertex="1" parent="pN0HyvS77nTdUHDOhbPm-2">
          <mxGeometry y="110" width="370" height="8" as="geometry" />
        </mxCell>
        <mxCell id="pN0HyvS77nTdUHDOhbPm-5" value="+ getNumeroDeMatricula(): string&lt;div&gt;# setNumeroDeMatricula(): string&lt;br&gt;&lt;div&gt;&lt;div&gt;# s&lt;span style=&quot;background-color: transparent; color: light-dark(rgb(0, 0, 0), rgb(255, 255, 255));&quot;&gt;etIsMatriculado(isMatriculado: boolean): boolean&lt;/span&gt;&lt;/div&gt;&lt;div&gt;# renovarMatricula(codigoDasDisciplinas: array[int]): boolean&lt;/div&gt;&lt;div&gt;# trancarPeriodo(): boolean&lt;/div&gt;&lt;/div&gt;&lt;/div&gt;" style="text;strokeColor=none;fillColor=none;align=left;verticalAlign=top;spacingLeft=4;spacingRight=4;overflow=hidden;rotatable=0;points=[[0,0.5],[1,0.5]];portConstraint=eastwest;whiteSpace=wrap;html=1;" vertex="1" parent="pN0HyvS77nTdUHDOhbPm-2">
          <mxGeometry y="118" width="370" height="82" as="geometry" />
        </mxCell>
      </root>
    </mxGraphModel>
  </diagram>
</mxfile>
